<svg xmlns="http://www.w3.org/2000/svg" viewBox="0 0 31 20" width="31" height="20">
  <defs>
    <style>
      .cls-1 {
        fill: #d9d7d3;
      }

      .cls-2 {
        fill: #fff;
      }
    </style>
  </defs>
  <g id="icon_tab_kyouin_off" transform="translate(-1504.5 -731)">
    <rect id="Rectangle_16" data-name="Rectangle 16" class="cls-1" width="31" height="20" rx="3" transform="translate(1504.5 731)"/>
    <path id="Triangle_4" data-name="Triangle 4" class="cls-2" d="M3.5,0,7,7H0Z" transform="translate(1513.5 737) rotate(90)"/>
    <g id="Group_38" data-name="Group 38" transform="translate(1515.5 732)">
      <path id="Fill_16" data-name="Fill 16" class="cls-2" d="M5.5,2.75A2.75,2.75,0,1,1,2.75,0,2.75,2.75,0,0,1,5.5,2.75" transform="translate(0.67 5.484)"/>
      <path id="Fill_17" data-name="Fill 17" class="cls-2" d="M0,5.375v-2a3.375,3.375,0,0,1,6.75,0v2Z" transform="translate(0.045 12.151)"/>
      <path id="Fill_18" data-name="Fill 18" class="cls-2" d="M13.917,13.583H6.834v-2h5.083V2H0V0H13.917Z" transform="translate(1.815 0.901)"/>
    </g>
  </g>
</svg>
