<svg xmlns="http://www.w3.org/2000/svg" viewBox="0 0 17.099 15.346" width="18px" height="16px">
  <defs>
    <style>
      .cls-1 {
        fill: #417505;
      }
    </style>
  </defs>
  <g id="icon_cnr_gakusei" transform="translate(-0.925 -0.717)">
    <path id="Fill_19" data-name="Fill 19" class="cls-1" d="M15.849,3.611,7.924,7.221,0,3.611,7.924,0Z" transform="translate(0.925 0.717)"/>
    <path id="Fill_20" data-name="Fill 20" class="cls-1" d="M2.375,5.625H0L.548,0H1.827Z" transform="translate(15.649 5.568)"/>
    <path id="Fill_21" data-name="Fill 21" class="cls-1" d="M4.39,10.676A4.4,4.4,0,0,1,0,6.286V0H8.781V6.286A4.4,4.4,0,0,1,4.39,10.676ZM4.345,3.2c-1.382,0-2.576,0-2.576,2.656a2.657,2.657,0,1,0,5.314,0c0-1.18-.247-1.906-.778-2.286A3.211,3.211,0,0,0,4.426,3.2H4.345Z" transform="translate(4.459 5.388)"/>
  </g>
</svg>
