<svg xmlns="http://www.w3.org/2000/svg" viewBox="0 0 20.75 14.25" width="21px" height="15px">
  <defs>
    <style>
      .cls-1 {
        fill: #417505;
      }
    </style>
  </defs>
  <g id="icon_cnr_katei" transform="translate(-0.566 -0.818)">
    <path id="Fill_4" data-name="Fill 4" class="cls-1" d="M0,3.271H4.595V0H0Z" transform="translate(0.566 0.817)"/>
    <path id="Fill_6" data-name="Fill 6" class="cls-1" d="M0,3.271H4.595V0H0Z" transform="translate(6.716 0.817)"/>
    <path id="Fill_7" data-name="Fill 7" class="cls-1" d="M0,3.271H4.595V0H0Z" transform="translate(12.867 0.817)"/>
    <path id="Fill_8" data-name="Fill 8" class="cls-1" d="M0,3.271H4.595V0H0Z" transform="translate(2.196 6.307)"/>
    <path id="Fill_9" data-name="Fill 9" class="cls-1" d="M0,3.271H4.595V0H0Z" transform="translate(8.347 6.307)"/>
    <path id="Fill_10" data-name="Fill 10" class="cls-1" d="M0,3.271H4.595V0H0Z" transform="translate(14.498 6.307)"/>
    <path id="Fill_11" data-name="Fill 11" class="cls-1" d="M0,3.271H4.595V0H0Z" transform="translate(4.419 11.797)"/>
    <path id="Fill_12" data-name="Fill 12" class="cls-1" d="M0,3.271H4.595V0H0Z" transform="translate(10.57 11.797)"/>
    <path id="Fill_13" data-name="Fill 13" class="cls-1" d="M0,3.271H4.595V0H0Z" transform="translate(16.721 11.797)"/>
  </g>
</svg>
