<svg xmlns="http://www.w3.org/2000/svg" viewBox="0 0 31 20" width="31" height="20">
  <defs>
    <style>
      .cls-1 {
        fill: #d9d7d3;
      }

      .cls-2 {
        fill: #fff;
      }
    </style>
  </defs>
  <g id="icon_tab_tokusyoku_off" transform="translate(-1364.5 -731)">
    <path id="Rectangle_16" data-name="Rectangle 16" class="cls-1" d="M3,0H28a3,3,0,0,1,3,3V17a3,3,0,0,1-3,3H3a3,3,0,0,1-3-3V3A3,3,0,0,1,3,0Z" transform="translate(1364.5 731)"/>
    <path id="Triangle_4" data-name="Triangle 4" class="cls-2" d="M3.5,0,7,7H0Z" transform="translate(1373.5 737) rotate(90)"/>
    <path id="Fill_2" data-name="Fill 2" class="cls-2" d="M9.271,18.552h0L7.09,15.74,3.754,16.982l-.115-3.556L.213,12.469l2-2.944L0,6.736,3.348,5.529,3.2,1.974l3.418.994L8.583,0l2.181,2.812L14.1,1.57l.114,3.557,3.426.958-2,2.944,2.21,2.789-3.348,1.206.151,3.556-3.418-.993L9.272,18.551ZM8.927,5.86a3.416,3.416,0,1,0,3.417,3.416A3.421,3.421,0,0,0,8.927,5.86Z" transform="translate(1375.5 732)"/>
  </g>
</svg>
