<svg xmlns="http://www.w3.org/2000/svg" viewBox="0 0 17 17" width="18px" height="18px">
  <defs>
    <style>
      .cls-1 {
        fill: #7ed321;
      }
    </style>
  </defs>
  <path id="icon_tooltip_help" class="cls-1" d="M8.5,17A8.5,8.5,0,1,1,17,8.5,8.51,8.51,0,0,1,8.5,17Zm-.325-5.523a1.408,1.408,0,0,0-.544.106,1.351,1.351,0,0,0-.445.294,1.368,1.368,0,0,0-.3.446,1.458,1.458,0,0,0,0,1.088,1.336,1.336,0,0,0,.741.741,1.458,1.458,0,0,0,1.088,0,1.336,1.336,0,0,0,.741-.741,1.458,1.458,0,0,0,0-1.088,1.368,1.368,0,0,0-.3-.446,1.351,1.351,0,0,0-.446-.294A1.411,1.411,0,0,0,8.175,11.477Zm.242-6.2a1.126,1.126,0,0,1,.778.28,1,1,0,0,1,.31.778.926.926,0,0,1-.144.491,2.887,2.887,0,0,1-.4.5c-.173.177-.379.368-.612.567s-.5.441-.778.71a1.591,1.591,0,0,0-.408.589,2.163,2.163,0,0,0-.122.77v.665H9.309v-.438a1.2,1.2,0,0,1,.121-.514A1.575,1.575,0,0,1,9.9,9.149a10.067,10.067,0,0,0,.9-.778,4.2,4.2,0,0,0,.574-.7,2.458,2.458,0,0,0,.31-.7,3.227,3.227,0,0,0,.091-.793A2.907,2.907,0,0,0,11.5,4.889a2.706,2.706,0,0,0-.74-.937,3.238,3.238,0,0,0-1.081-.567A4.434,4.434,0,0,0,8.372,3.2a3.96,3.96,0,0,0-2.6.839A3.494,3.494,0,0,0,4.594,6.476l2.327.15a1.528,1.528,0,0,1,.416-.951A1.419,1.419,0,0,1,8.417,5.281Z"/>
</svg>
